<svg width="57" height="57" viewBox="0 0 57 57" fill="none" xmlns="http://www.w3.org/2000/svg">
<circle cx="28.5" cy="28.5" r="28.5" fill="url(#paint0_linear_4_5)"/>
<path d="M8.08 27.56C8.08 26.78 8.18 25.89 8.38 24.89L10.81 12.2H17.44L15.04 24.98C14.86 25.92 14.77 26.74 14.77 27.44C14.77 28.12 14.91 28.64 15.19 29C15.49 29.36 15.91 29.54 16.45 29.54C16.99 29.54 17.43 29.47 17.77 29.33C18.11 29.19 18.42 28.95 18.7 28.61C19.24 27.93 19.68 26.72 20.02 24.98L22.45 12.2H26.98L24.58 24.95C24.02 27.79 22.97 29.78 21.43 30.92C19.93 32.04 17.7 32.6 14.74 32.6C12.52 32.6 10.82 32.12 9.64 31.16C8.6 30.32 8.08 29.12 8.08 27.56Z" fill="#E77443"/>
<path d="M47.11 41.6C44.69 41.6 43.48 40.66 43.48 38.78C43.48 37.96 43.65 36.76 43.99 35.18C44.35 33.58 44.59 32.46 44.71 31.82C44.99 30.36 45.13 29.4 45.13 28.94C45.13 27.92 44.75 27.41 43.99 27.41C43.49 27.41 43 27.76 42.52 28.46C42.04 29.14 41.69 30.17 41.47 31.55L39.61 41L33.76 41.6L35.38 33.44C35.56 32.54 35.73 31.58 35.89 30.56C36.05 29.54 36.13 28.95 36.13 28.79C36.13 27.87 35.79 27.41 35.11 27.41C34.65 27.41 34.17 27.75 33.67 28.43C33.17 29.11 32.78 30.15 32.5 31.55L30.67 41L24.76 41.6L27.91 25.7L32.8 25.1L32.29 28.13C32.81 27.05 33.55 26.28 34.51 25.82C35.47 25.34 36.7 25.1 38.2 25.1C39.06 25.1 39.77 25.31 40.33 25.73C40.89 26.15 41.26 26.7 41.44 27.38C41.78 26.68 42.38 26.13 43.24 25.73C44.12 25.31 45.09 25.1 46.15 25.1C47.23 25.1 48.03 25.22 48.55 25.46C49.09 25.68 49.52 25.98 49.84 26.36C50.38 27.06 50.65 28.05 50.65 29.33C50.65 30.59 50.38 32.53 49.84 35.15C49.56 36.43 49.42 37.31 49.42 37.79C49.42 38.25 49.55 38.62 49.81 38.9C50.09 39.18 50.43 39.34 50.83 39.38C50.63 40.06 50.18 40.6 49.48 41C48.8 41.4 48.01 41.6 47.11 41.6Z" fill="#559ACC"/>
<defs>
<linearGradient id="paint0_linear_4_5" x1="9.84545" y1="15.8942" x2="51.6279" y2="42.2298" gradientUnits="userSpaceOnUse">
<stop stop-color="#9EBBBF"/>
<stop offset="1" stop-color="#E6AB89"/>
</linearGradient>
</defs>
</svg>
